<svg width="14" height="23" fill="none" xmlns="http://www.w3.org/2000/svg"><rect x="3" y="3" width="11" height="20" rx="2" fill="#D4E7DD"/><path d="M10.011.95H3.04A2.091 2.091 0 0 0 .95 3.039v16.046c0 1.152.937 2.089 2.089 2.089H9.96a2.091 2.091 0 0 0 2.089-2.089V3.04c0-1.135-.91-2.062-2.039-2.088Zm-6.972.901H9.96c.655 0 1.188.533 1.188 1.188v.518H1.85v-.518c0-.655.533-1.188 1.188-1.188Zm8.11 2.607v13.208H1.85V4.458h9.298ZM9.96 20.273H3.04a1.189 1.189 0 0 1-1.188-1.187v-.518h9.298v.518c0 .654-.533 1.187-1.187 1.187Z" fill="#4F6258" stroke="#4F6258" stroke-width=".1"/><path d="M7.196 19.424a.696.696 0 1 1-1.392 0 .696.696 0 0 1 1.392 0Z" fill="#4F6258"/></svg>