<svg width="25" height="23" fill="none" xmlns="http://www.w3.org/2000/svg"><path d="M22.288 3.415H6.018a2.759 2.759 0 0 0-1.853.8c-.5.493-.807 1.16-.86 1.873v9.292c.007.74.295 1.449.802 1.973.507.523 1.193.82 1.91.827h6.533l5.547 4.71v-4.71h4.191a2.694 2.694 0 0 0 1.911-.827A2.872 2.872 0 0 0 25 15.38V6.215a2.872 2.872 0 0 0-.801-1.973 2.693 2.693 0 0 0-1.91-.827Z" fill="#FEEFEF"/><path d="m19.983 1.11.007-.768h-.007v.768Zm-16.271 0V.342h-.024l.024.768ZM1 3.783l-.766-.056-.002.028v.028H1Zm0 9.292H.231v.006L1 13.075Zm2.712 2.8-.007.769h.007v-.769Zm6.533 0 .497-.585-.215-.183h-.282v.768Zm5.547 4.71-.498.586a.769.769 0 0 0 1.266-.586h-.768Zm0-4.71v-.768h-.769v.768h.769Zm4.19 0v.769h.008l-.007-.769Zm2.713-2.8.768.006v-.006h-.768Zm0-9.164h.768v-.007l-.768.007ZM19.983.342H3.712v1.537h16.27V.342Zm-16.295 0a3.527 3.527 0 0 0-2.368 1.02l1.079 1.095a1.99 1.99 0 0 1 1.336-.578L3.688.342ZM1.32 1.362A3.702 3.702 0 0 0 .234 3.728l1.532.113c.04-.53.267-1.022.633-1.383L1.32 1.363ZM.232 3.784v9.292h1.536V3.783H.232Zm0 9.298a3.64 3.64 0 0 0 1.017 2.502l1.104-1.07a2.103 2.103 0 0 1-.585-1.444l-1.536.012Zm1.017 2.502a3.462 3.462 0 0 0 2.456 1.06l.014-1.536a1.925 1.925 0 0 1-1.366-.594l-1.104 1.07Zm2.463 1.06h6.533v-1.536H3.712v1.537Zm6.035-.182 5.547 4.71.995-1.172-5.547-4.71-.995 1.172Zm6.813 4.124v-4.71h-1.537v4.71h1.537Zm-.768-3.941h4.19v-1.537h-4.19v1.537Zm4.198 0a3.462 3.462 0 0 0 2.456-1.061l-1.105-1.07a1.925 1.925 0 0 1-1.365.594l.014 1.537Zm2.456-1.061a3.64 3.64 0 0 0 1.017-2.502l-1.537-.012a2.103 2.103 0 0 1-.585 1.444l1.104 1.07Zm1.017-2.508V3.91h-1.537v9.164h1.537Zm0-9.17a3.64 3.64 0 0 0-1.018-2.502l-1.104 1.07c.368.379.58.897.585 1.444l1.537-.013Zm-1.018-2.502A3.462 3.462 0 0 0 19.99.342l-.014 1.537c.508.005.998.215 1.365.593l1.104-1.069Z" fill="#CF6D58"/><path d="M14.153 14.999s3.205-2.164 3.944-3.564c.74-1.273.863-3.055-.74-3.946a2.314 2.314 0 0 0-1.941-.137c-.315.12-.601.308-.84.551a2.455 2.455 0 0 0-.546.86 2.541 2.541 0 0 0-.566-.833 2.448 2.448 0 0 0-.836-.537 2.388 2.388 0 0 0-1.927.096c-1.479.891-1.356 2.673-.74 3.946.987 1.4 4.192 3.564 4.192 3.564Z" fill="#FEEFEF"/><path d="m11.848 12.693-.43.637.43.29.43-.29-.43-.637Zm3.944-3.564-.664-.386-.008.014-.007.013.679.36Zm-.74-3.945.374-.672h-.002l-.371.672Zm-3.328 1.272-.708.298a.769.769 0 0 0 1.428-.028l-.72-.27ZM8.396 5.184l-.344-.688-.027.014L8 4.525l.396.659Zm-.74 3.945-.691.335.027.057.036.05.629-.442Zm4.192 3.564.43.637.003-.002.008-.005.029-.02a19.706 19.706 0 0 0 .491-.346c.32-.23.754-.553 1.214-.921.458-.367.95-.787 1.38-1.213.42-.414.827-.878 1.068-1.335l-1.358-.718c-.13.244-.4.575-.79.96a16.63 16.63 0 0 1-1.261 1.106 28.778 28.778 0 0 1-1.612 1.198l-.025.017-.006.004-.001.001.43.637Zm4.608-3.178c.431-.741.707-1.668.609-2.584-.103-.952-.61-1.846-1.639-2.419l-.747 1.343c.572.319.806.76.857 1.24.056.517-.1 1.117-.408 1.648l1.328.772Zm-1.031-5.004a3.082 3.082 0 0 0-1.275-.378l-.108 1.533c.222.016.44.08.639.19l.744-1.345Zm-1.275-.378a3.07 3.07 0 0 0-1.314.195l.55 1.436c.21-.08.433-.114.656-.098l.108-1.533Zm-1.314.195a3.13 3.13 0 0 0-1.113.73l1.096 1.078c.163-.165.356-.292.566-.372l-.549-1.436Zm-1.113.73c-.316.321-.56.706-.718 1.129l1.439.54c.084-.224.212-.425.375-.59l-1.096-1.078Zm.71 1.1a3.31 3.31 0 0 0-.737-1.084l-1.074 1.1c.167.162.301.36.394.58l1.417-.595Zm-.737-1.084a3.217 3.217 0 0 0-1.098-.705l-.55 1.436c.212.08.408.206.574.369l1.074-1.1Zm-1.098-.705a3.157 3.157 0 0 0-1.286-.204L9.389 5.7a1.62 1.62 0 0 1 .66.105l.549-1.436Zm-1.286-.204a3.165 3.165 0 0 0-1.26.331l.688 1.375c.204-.102.424-.16.649-.171l-.077-1.535ZM8 4.525c-.973.586-1.424 1.485-1.523 2.406-.097.893.134 1.802.488 2.533l1.383-.67c-.262-.54-.401-1.16-.343-1.698.055-.511.281-.95.788-1.254L8 4.525Zm-.972 5.047c.57.808 1.709 1.763 2.623 2.472a38.553 38.553 0 0 0 1.756 1.279l.008.005a.031.031 0 0 1 .003.002l.43-.637.43-.637h-.002l-.006-.005-.025-.017a36.825 36.825 0 0 1-1.652-1.205c-.935-.724-1.891-1.55-2.308-2.142l-1.257.885Z" fill="#CF6D58"/></svg>